<svg xmlns="http://www.w3.org/2000/svg" viewBox="0 0 194.07 180.21">
  <defs>
    <style>
      .cls-1 {
        fill: #fff;
      }
    </style>
  </defs>
  <title>LogoWhite</title>
  <g id="Layer_2" data-name="Layer 2">
    <g id="Layer_1-2" data-name="Layer 1">
      <g>
        <g>
          <path class="cls-1" d="M25.26,152.91l-10-2.54c-6.82-1.76-9.61-4.32-9.61-8.83,0-1.95,1-8.3,13.39-8.3,7.21,0,13.05,3.16,16.43,8.89L36,143l2.89-3-.27-.48C34.87,132.74,28.07,129.2,19,129.2c-11.26,0-17.72,4.54-17.72,12.44,0,6.6,3.93,10.52,12.75,12.72L24,157c7,1.89,9.72,4.63,9.72,9.75,0,8.64-11,9.31-14.4,9.31a20.68,20.68,0,0,1-16.11-7l-.59-.68L0,171.66l.42.47c4.66,5.3,11,8,18.86,8,12,0,18.85-4.9,18.85-13.46C38.13,159.34,34.4,155.36,25.26,152.91Z"/>
          <path class="cls-1" d="M89.57,156.42v-6.74c0-17.82-12.64-20.48-20.17-20.48-13.14,0-20.68,7.46-20.68,20.48v9.76c0,18.07,13,20.77,20.68,20.77,9.16,0,15.85-3,19.34-8.69l.35-.56L85.8,168.3l-.45.68c-3.14,4.71-8.47,7.09-15.85,7.09-14.21,0-16.33-10.61-16.33-16.94v-2.71ZM69.4,133.34c4.69,0,15.62,1.6,15.62,16.34v3.21H53.17v-3.21C53.17,134.94,64.52,133.34,69.4,133.34Z"/>
          <path class="cls-1" d="M140.6,156.42v-6.74c0-17.82-12.64-20.48-20.17-20.48-13.14,0-20.68,7.46-20.68,20.48v9.76c0,18.07,13,20.77,20.68,20.77,9.17,0,15.86-3,19.35-8.69l.34-.56-3.28-2.66-.46.68c-3.13,4.71-8.47,7.09-15.85,7.09-14.2,0-16.33-10.61-16.33-16.94v-2.71Zm-20.17-23.08c4.7,0,15.62,1.6,15.62,16.34v3.21H104.2v-3.21C104.2,134.94,115.55,133.34,120.43,133.34Z"/>
          <g>
            <path class="cls-1" d="M193.32,103.21v74.93h-2.74V169.4c-3.86,7.42-11.18,10.06-18.4,10.06-11,0-20.64-5-20.64-20.23v-9.15c0-15.25,9.76-20.23,20.74-20.23,7.22,0,14.54,2.54,18,9.45V103.21Zm-3,61.72V144.59c-2.44-9.25-10.87-12.1-17.58-12.1-8.65,0-18.1,4-18.1,17.79V159c0,13.83,9.45,17.79,18,17.79C179.09,176.82,187.12,174,190.27,164.93Z"/>
            <path class="cls-1" d="M172.18,180.21c-8,0-21.39-2.72-21.39-21v-9.15c0-18.25,13.46-21,21.49-21,4.62,0,12.57,1,17.24,7.52V102.46h4.55v76.43h-4.24v-6.83C186.06,177.34,179.9,180.21,172.18,180.21Zm.1-49.61c-16.52,0-20,10.59-20,19.48v9.15c0,8.89,3.45,19.48,19.89,19.48,4.74,0,13.36-1.25,17.73-9.66l1.42-2.72v11.06h1.24V104H191v38.52l-1.42-2.84C185.67,131.77,177.06,130.6,172.28,130.6Zm.3,47c-16.91,0-18.74-13-18.74-18.54v-8.75c0-5.57,1.83-18.54,18.85-18.54,3.51,0,15.21.92,18.31,12.66l0,.19,0,20.58C187,176.68,175.89,177.57,172.58,177.57Zm.11-44.33c-5.22,0-17.35,1.66-17.35,17V159c0,15.38,12.06,17,17.24,17,3,0,13.23-.81,16.94-11.27V144.69C186.66,134.07,175.92,133.24,172.69,133.24Z"/>
          </g>
        </g>
        <g>
          <path class="cls-1" d="M123.22,62.17c.13-12.35-20.87-35.15-21.78-36.12a1.31,1.31,0,0,0-.87-.34h0a1.38,1.38,0,0,0-.9.34c-.17.18-22.35,23.09-22.48,35.65A23,23,0,0,0,98.86,84.89l0-9.34L86.21,62.64a1.16,1.16,0,0,1-.36-.85,1.22,1.22,0,0,1,.41-.88,1.16,1.16,0,0,1,.84-.36h0a1.23,1.23,0,0,1,.86.39L98.85,72l.1-9.55L90.66,54a1.19,1.19,0,0,1-.35-.86,1.3,1.3,0,0,1,1.26-1.23,1.23,1.23,0,0,1,.86.39L99,58.89l.14-14.44a1.22,1.22,0,0,1,1.25-1.23,1.27,1.27,0,0,1,.27,0,1.23,1.23,0,0,1,1,1.23l-.14,14.44,6.7-6.51a1.15,1.15,0,0,1,.92-.35l.17,0a1.2,1.2,0,0,1,.64.38,1.13,1.13,0,0,1,.36.85,1.19,1.19,0,0,1-.39.86l-8.44,8.31-.1,9.55,11.12-10.85a1.08,1.08,0,0,1,.86-.35,1.17,1.17,0,0,1,.84.37l0,0a1.17,1.17,0,0,1,.33,1.08,1.19,1.19,0,0,1-.36.63L101.29,75.59l.16,8.61c0,.1,0,.35,0,.72A23,23,0,0,0,123.22,62.17Z"/>
          <path class="cls-1" d="M139.38,21.17,104.9,1.26a9.4,9.4,0,0,0-9.4,0L61,21.17a9.39,9.39,0,0,0-4.7,8.14V69.12A9.39,9.39,0,0,0,61,77.26L95.5,97.17a9.27,9.27,0,0,0,3.42,1.17l0-11.42A25.07,25.07,0,0,1,75.18,61.68c.13-13.35,22.17-36.11,23.1-37.08a3.53,3.53,0,0,1,2.31-.89,3.3,3.3,0,0,1,2.23.89l.05,0c.92,1,22.49,24.19,22.35,37.54a25.06,25.06,0,0,1-23.87,24.74l.06,11.42a9.27,9.27,0,0,0,3.49-1.18l34.48-19.91a9.39,9.39,0,0,0,4.7-8.14V29.31A9.39,9.39,0,0,0,139.38,21.17Z"/>
        </g>
      </g>
    </g>
  </g>
</svg>
