<svg xmlns="http://www.w3.org/2000/svg" viewBox="0 0 299.28 99.65">
  <defs>
    <style>
      .cls-1 {
        fill: #317266;
      }

      .cls-2 {
        fill: #40403f;
      }
    </style>
  </defs>
  <title>Logo-Horizontal</title>
  <g id="Layer_2" data-name="Layer 2">
    <g id="Layer_1-2" data-name="Layer 1">
      <g>
        <g>
          <path class="cls-1" d="M66.9,63.46C67,51.11,46,28.32,45.12,27.34a1.36,1.36,0,0,0-.87-.34h0a1.39,1.39,0,0,0-.9.35C43.17,27.52,21,50.44,20.86,63A23,23,0,0,0,42.54,86.18l0-9.34L29.89,63.93a1.18,1.18,0,0,1-.36-.85,1.25,1.25,0,0,1,.41-.88,1.15,1.15,0,0,1,.84-.35h0a1.12,1.12,0,0,1,.86.39L42.53,73.29l.1-9.55-8.28-8.5a1.14,1.14,0,0,1-.36-.85,1.21,1.21,0,0,1,.41-.88,1.09,1.09,0,0,1,.85-.35,1.15,1.15,0,0,1,.86.39l6.56,6.63.15-14.44a1.21,1.21,0,0,1,1.24-1.23l.27,0a1.22,1.22,0,0,1,1,1.23l-.14,14.44,6.71-6.52a1.21,1.21,0,0,1,.92-.35l.16,0a1.22,1.22,0,0,1,.65.38,1.19,1.19,0,0,1,.35.85,1.12,1.12,0,0,1-.39.86l-8.44,8.32L45,73.32,56.15,62.47a1.06,1.06,0,0,1,.85-.35,1.13,1.13,0,0,1,.84.37l0,0a1.16,1.16,0,0,1,.33,1.09,1.2,1.2,0,0,1-.36.62L45,76.88l.15,8.61c0,.1,0,.35,0,.73A23.05,23.05,0,0,0,66.9,63.46Z"/>
          <path class="cls-1" d="M83.06,22.46,48.58,2.55a9.4,9.4,0,0,0-9.4,0L4.7,22.46A9.39,9.39,0,0,0,0,30.6V70.42a9.39,9.39,0,0,0,4.7,8.14L39.18,98.47a9.53,9.53,0,0,0,3.42,1.17l-.05-11.43A25.05,25.05,0,0,1,18.86,63C19,49.62,41,26.86,42,25.9a3.5,3.5,0,0,1,2.3-.9,3.37,3.37,0,0,1,2.23.89l.06.05c.91,1,22.48,24.19,22.34,37.54A25,25,0,0,1,45,88.22l.05,11.43a9.44,9.44,0,0,0,3.49-1.18L83.06,78.56a9.39,9.39,0,0,0,4.7-8.14V30.6A9.39,9.39,0,0,0,83.06,22.46Z"/>
        </g>
        <g>
          <path class="cls-2" d="M130.47,50.45l-10-2.54c-6.82-1.76-9.61-4.32-9.61-8.83,0-1.95,1-8.3,13.39-8.3,7.21,0,13,3.16,16.43,8.88l.51.86,2.89-3.05-.27-.49c-3.77-6.7-10.57-10.24-19.67-10.24-11.26,0-17.73,4.53-17.73,12.44,0,6.59,3.94,10.52,12.76,12.72l10,2.64c7,1.9,9.72,4.64,9.72,9.75,0,8.65-11,9.32-14.4,9.32a20.68,20.68,0,0,1-16.11-7l-.59-.68-2.58,3.23.42.47c4.66,5.29,11,8,18.86,8,12,0,18.85-4.91,18.85-13.46C143.34,56.88,139.61,52.9,130.47,50.45Z"/>
          <path class="cls-2" d="M194.78,54V47.21c0-17.81-12.64-20.47-20.17-20.47-13.14,0-20.68,7.46-20.68,20.47V57c0,18.08,13,20.78,20.68,20.78,9.16,0,15.85-3,19.34-8.69l.35-.56L191,65.84l-.45.68c-3.14,4.7-8.47,7.09-15.85,7.09-14.21,0-16.33-10.62-16.33-16.94V54ZM174.61,30.88c4.69,0,15.62,1.59,15.62,16.33v3.22H158.38V47.21C158.38,32.47,169.73,30.88,174.61,30.88Z"/>
          <path class="cls-2" d="M245.81,54V47.21c0-17.81-12.64-20.47-20.17-20.47C212.5,26.74,205,34.2,205,47.21V57c0,18.08,13,20.78,20.68,20.78,9.16,0,15.85-3,19.35-8.69l.34-.56-3.28-2.66-.46.68c-3.14,4.7-8.47,7.09-15.85,7.09-14.21,0-16.33-10.62-16.33-16.94V54ZM225.64,30.88c4.7,0,15.62,1.59,15.62,16.33v3.22H209.41V47.21C209.41,32.47,220.76,30.88,225.64,30.88Z"/>
          <g>
            <path class="cls-2" d="M298.53.75V75.68h-2.74V66.94C291.92,74.36,284.6,77,277.39,77c-11,0-20.64-5-20.64-20.23V47.62c0-15.25,9.76-20.23,20.74-20.23,7.22,0,14.54,2.54,18,9.45V.75Zm-3,61.71V42.13C293,32.88,284.6,30,277.89,30c-8.64,0-18.09,4-18.09,17.79v8.75c0,13.82,9.45,17.79,18,17.79C284.3,74.36,292.33,71.51,295.48,62.46Z"/>
            <path class="cls-2" d="M277.39,77.75c-8,0-21.39-2.72-21.39-21V47.62c0-18.26,13.46-21,21.49-21,4.62,0,12.57,1,17.24,7.51V0h4.55V76.43H295V69.6C291.27,74.88,285.11,77.75,277.39,77.75Zm.1-49.61c-16.52,0-20,10.59-20,19.48v9.15c0,8.89,3.45,19.48,19.89,19.48,4.74,0,13.36-1.25,17.73-9.66l1.42-2.72V74.93h1.24V1.5h-1.55V40l-1.42-2.84C290.88,29.31,282.27,28.14,277.49,28.14Zm.3,47c-16.92,0-18.74-13-18.74-18.54V47.82c0-5.57,1.83-18.54,18.84-18.54,3.52,0,15.22.91,18.32,12.66l0,.19,0,20.58C292.18,74.21,281.1,75.11,277.79,75.11Zm.1-44.33c-5.21,0-17.34,1.66-17.34,17v8.75c0,15.38,12.06,17,17.24,17,3,0,13.23-.82,16.94-11.27V42.23C291.87,31.61,281.13,30.78,277.89,30.78Z"/>
          </g>
        </g>
      </g>
    </g>
  </g>
</svg>
