<svg xmlns="http://www.w3.org/2000/svg" viewBox="0 0 87.76 98.35">
  <defs>
    <style>
      .cls-1 {
        fill: #317266;
      }
    </style>
  </defs>
  <title>Symbol</title>
  <g id="Layer_2" data-name="Layer 2">
    <g id="Layer_1-2" data-name="Layer 1">
      <g>
        <path class="cls-1" d="M66.9,62.17C67,49.82,46,27,45.12,26.05a1.31,1.31,0,0,0-.87-.34h0a1.38,1.38,0,0,0-.9.34C43.17,26.23,21,49.14,20.86,61.7A23,23,0,0,0,42.54,84.89l0-9.34L29.89,62.64a1.2,1.2,0,0,1-.36-.85,1.22,1.22,0,0,1,.41-.88,1.16,1.16,0,0,1,.84-.36h0a1.19,1.19,0,0,1,.86.39L42.53,72l.1-9.55L34.35,54a1.17,1.17,0,0,1,0-1.73,1.13,1.13,0,0,1,.85-.36,1.23,1.23,0,0,1,.86.39l6.56,6.64.15-14.44a1.21,1.21,0,0,1,1.24-1.23,1.19,1.19,0,0,1,1.24,1.25l-.14,14.44,6.71-6.51a1.14,1.14,0,0,1,.92-.35l.16,0a1.22,1.22,0,0,1,.65.38,1.17,1.17,0,0,1,0,1.71l-8.44,8.31L45,72,56.15,61.17a1.06,1.06,0,0,1,.85-.35,1.17,1.17,0,0,1,.84.37l0,0a1.14,1.14,0,0,1,.33,1.08,1.19,1.19,0,0,1-.36.63L45,75.59l.15,8.61c0,.1,0,.35,0,.72A23,23,0,0,0,66.9,62.17Z"/>
        <path class="cls-1" d="M83.06,21.17,48.58,1.26a9.4,9.4,0,0,0-9.4,0L4.7,21.17A9.39,9.39,0,0,0,0,29.31V69.12a9.39,9.39,0,0,0,4.7,8.14L39.18,97.17a9.34,9.34,0,0,0,3.42,1.17l-.05-11.42A25.07,25.07,0,0,1,18.86,61.68C19,48.33,41,25.57,42,24.6a3.49,3.49,0,0,1,2.3-.89,3.28,3.28,0,0,1,2.23.89l.06,0c.91,1,22.48,24.19,22.34,37.54A25,25,0,0,1,45,86.93l.05,11.42a9.27,9.27,0,0,0,3.49-1.18L83.06,77.26a9.39,9.39,0,0,0,4.7-8.14V29.31A9.39,9.39,0,0,0,83.06,21.17Z"/>
      </g>
    </g>
  </g>
</svg>
